<mxfile host="app.diagrams.net" modified="2021-05-27T07:13:01.673Z" agent="5.0 (Windows NT 10.0; Win64; x64) AppleWebKit/537.36 (KHTML, like Gecko) Chrome/90.0.4430.212 Safari/537.36" etag="euOwwm9njezy50jBw7Ic" version="14.7.2" type="github">
  <diagram id="prtHgNgQTEPvFCAcTncT" name="Page-1">
    <mxGraphModel dx="1422" dy="762" grid="1" gridSize="10" guides="1" tooltips="1" connect="1" arrows="1" fold="1" page="1" pageScale="1" pageWidth="827" pageHeight="1169" background="#ffffff" math="0" shadow="0">
      <root>
        <mxCell id="0" />
        <mxCell id="1" parent="0" />
        <mxCell id="QNgcP84DdOr4TPMnf6nE-1" value="사용자" style="shape=umlActor;verticalLabelPosition=bottom;verticalAlign=top;html=1;outlineConnect=0;" vertex="1" parent="1">
          <mxGeometry x="130" y="590" width="30" height="60" as="geometry" />
        </mxCell>
        <mxCell id="QNgcP84DdOr4TPMnf6nE-5" value="HappyHouse" style="swimlane;labelBackgroundColor=#CCCCFF;labelBorderColor=#CCCCFF;" vertex="1" parent="1">
          <mxGeometry x="400" y="400" width="330" height="230" as="geometry">
            <mxRectangle x="290" y="540" width="130" height="23" as="alternateBounds" />
          </mxGeometry>
        </mxCell>
        <mxCell id="QNgcP84DdOr4TPMnf6nE-7" value="" style="ellipse;whiteSpace=wrap;html=1;" vertex="1" parent="QNgcP84DdOr4TPMnf6nE-5">
          <mxGeometry x="10" y="30" width="60" height="30" as="geometry" />
        </mxCell>
        <mxCell id="QNgcP84DdOr4TPMnf6nE-8" value="+ 전국 주택/아파트 매물 상세 정보" style="text;html=1;strokeColor=none;fillColor=none;align=center;verticalAlign=middle;whiteSpace=wrap;rounded=0;" vertex="1" parent="QNgcP84DdOr4TPMnf6nE-5">
          <mxGeometry x="70" y="30" width="210" height="30" as="geometry" />
        </mxCell>
        <mxCell id="QNgcP84DdOr4TPMnf6nE-10" value="+ 연동한 정보를 구글 지도에 표시" style="text;html=1;strokeColor=none;fillColor=none;align=center;verticalAlign=middle;whiteSpace=wrap;rounded=0;" vertex="1" parent="QNgcP84DdOr4TPMnf6nE-5">
          <mxGeometry x="70" y="70" width="210" height="30" as="geometry" />
        </mxCell>
        <mxCell id="QNgcP84DdOr4TPMnf6nE-11" value="+ 관심 지역 등록" style="text;html=1;strokeColor=none;fillColor=none;align=center;verticalAlign=middle;whiteSpace=wrap;rounded=0;" vertex="1" parent="QNgcP84DdOr4TPMnf6nE-5">
          <mxGeometry x="60" y="110" width="150" height="30" as="geometry" />
        </mxCell>
        <mxCell id="QNgcP84DdOr4TPMnf6nE-12" value="+ 학교, 카페, 식당 등 주변 상권 정보 제공" style="text;html=1;strokeColor=none;fillColor=none;align=center;verticalAlign=middle;whiteSpace=wrap;rounded=0;" vertex="1" parent="QNgcP84DdOr4TPMnf6nE-5">
          <mxGeometry x="80" y="150" width="230" height="30" as="geometry" />
        </mxCell>
        <mxCell id="QNgcP84DdOr4TPMnf6nE-14" value="+ 키워드 검색 기능" style="text;html=1;strokeColor=none;fillColor=none;align=center;verticalAlign=middle;whiteSpace=wrap;rounded=0;" vertex="1" parent="QNgcP84DdOr4TPMnf6nE-5">
          <mxGeometry x="30" y="190" width="210" height="30" as="geometry" />
        </mxCell>
        <mxCell id="QNgcP84DdOr4TPMnf6nE-17" value="" style="ellipse;whiteSpace=wrap;html=1;" vertex="1" parent="QNgcP84DdOr4TPMnf6nE-5">
          <mxGeometry x="10" y="150" width="60" height="30" as="geometry" />
        </mxCell>
        <mxCell id="QNgcP84DdOr4TPMnf6nE-16" value="" style="ellipse;whiteSpace=wrap;html=1;" vertex="1" parent="QNgcP84DdOr4TPMnf6nE-5">
          <mxGeometry x="10" y="110" width="60" height="30" as="geometry" />
        </mxCell>
        <mxCell id="QNgcP84DdOr4TPMnf6nE-15" value="" style="ellipse;whiteSpace=wrap;html=1;" vertex="1" parent="QNgcP84DdOr4TPMnf6nE-5">
          <mxGeometry x="10" y="70" width="60" height="30" as="geometry" />
        </mxCell>
        <mxCell id="QNgcP84DdOr4TPMnf6nE-18" value="" style="ellipse;whiteSpace=wrap;html=1;" vertex="1" parent="QNgcP84DdOr4TPMnf6nE-5">
          <mxGeometry x="10" y="190" width="60" height="30" as="geometry" />
        </mxCell>
        <mxCell id="QNgcP84DdOr4TPMnf6nE-19" value="" style="endArrow=classic;html=1;" edge="1" parent="1">
          <mxGeometry width="50" height="50" relative="1" as="geometry">
            <mxPoint x="160" y="605" as="sourcePoint" />
            <mxPoint x="400" y="565" as="targetPoint" />
          </mxGeometry>
        </mxCell>
        <mxCell id="QNgcP84DdOr4TPMnf6nE-20" value="실시간 뉴스 제공" style="swimlane;labelBackgroundColor=#CCCCFF;labelBorderColor=#CCCCFF;" vertex="1" parent="1">
          <mxGeometry x="540" y="660" width="260" height="160" as="geometry">
            <mxRectangle x="290" y="540" width="130" height="23" as="alternateBounds" />
          </mxGeometry>
        </mxCell>
        <mxCell id="QNgcP84DdOr4TPMnf6nE-21" value="" style="ellipse;whiteSpace=wrap;html=1;" vertex="1" parent="QNgcP84DdOr4TPMnf6nE-20">
          <mxGeometry x="10" y="30" width="60" height="30" as="geometry" />
        </mxCell>
        <mxCell id="QNgcP84DdOr4TPMnf6nE-22" value="+ 뉴스 크롤링" style="text;html=1;strokeColor=none;fillColor=none;align=center;verticalAlign=middle;whiteSpace=wrap;rounded=0;" vertex="1" parent="QNgcP84DdOr4TPMnf6nE-20">
          <mxGeometry x="60" y="30" width="130" height="30" as="geometry" />
        </mxCell>
        <mxCell id="QNgcP84DdOr4TPMnf6nE-23" value="+&amp;nbsp; 검색 키워드 관련 뉴스 제공" style="text;html=1;strokeColor=none;fillColor=none;align=center;verticalAlign=middle;whiteSpace=wrap;rounded=0;" vertex="1" parent="QNgcP84DdOr4TPMnf6nE-20">
          <mxGeometry x="80" y="70" width="170" height="30" as="geometry" />
        </mxCell>
        <mxCell id="QNgcP84DdOr4TPMnf6nE-24" value="+ 뉴스 링크 제공" style="text;html=1;strokeColor=none;fillColor=none;align=center;verticalAlign=middle;whiteSpace=wrap;rounded=0;" vertex="1" parent="QNgcP84DdOr4TPMnf6nE-20">
          <mxGeometry x="60" y="110" width="150" height="30" as="geometry" />
        </mxCell>
        <mxCell id="QNgcP84DdOr4TPMnf6nE-28" value="" style="ellipse;whiteSpace=wrap;html=1;" vertex="1" parent="QNgcP84DdOr4TPMnf6nE-20">
          <mxGeometry x="10" y="70" width="60" height="30" as="geometry" />
        </mxCell>
        <mxCell id="QNgcP84DdOr4TPMnf6nE-29" value="" style="ellipse;whiteSpace=wrap;html=1;" vertex="1" parent="QNgcP84DdOr4TPMnf6nE-20">
          <mxGeometry x="10" y="110" width="60" height="30" as="geometry" />
        </mxCell>
        <mxCell id="QNgcP84DdOr4TPMnf6nE-49" style="edgeStyle=orthogonalEdgeStyle;rounded=0;orthogonalLoop=1;jettySize=auto;html=1;exitX=0.5;exitY=1;exitDx=0;exitDy=0;" edge="1" parent="QNgcP84DdOr4TPMnf6nE-20" source="QNgcP84DdOr4TPMnf6nE-22" target="QNgcP84DdOr4TPMnf6nE-22">
          <mxGeometry relative="1" as="geometry" />
        </mxCell>
        <mxCell id="QNgcP84DdOr4TPMnf6nE-31" value="" style="endArrow=classic;html=1;entryX=0;entryY=0.25;entryDx=0;entryDy=0;" edge="1" parent="1" source="QNgcP84DdOr4TPMnf6nE-1" target="QNgcP84DdOr4TPMnf6nE-20">
          <mxGeometry width="50" height="50" relative="1" as="geometry">
            <mxPoint x="160" y="660" as="sourcePoint" />
            <mxPoint x="490" y="770" as="targetPoint" />
          </mxGeometry>
        </mxCell>
        <mxCell id="QNgcP84DdOr4TPMnf6nE-32" value="기본 관리 기능" style="swimlane;labelBackgroundColor=#CCCCFF;labelBorderColor=#CCCCFF;" vertex="1" parent="1">
          <mxGeometry x="430" y="850" width="330" height="230" as="geometry">
            <mxRectangle x="290" y="540" width="130" height="23" as="alternateBounds" />
          </mxGeometry>
        </mxCell>
        <mxCell id="QNgcP84DdOr4TPMnf6nE-33" value="" style="ellipse;whiteSpace=wrap;html=1;" vertex="1" parent="QNgcP84DdOr4TPMnf6nE-32">
          <mxGeometry x="10" y="30" width="60" height="30" as="geometry" />
        </mxCell>
        <mxCell id="QNgcP84DdOr4TPMnf6nE-34" value="+&amp;nbsp; 회원가입/탈퇴" style="text;html=1;strokeColor=none;fillColor=none;align=center;verticalAlign=middle;whiteSpace=wrap;rounded=0;" vertex="1" parent="QNgcP84DdOr4TPMnf6nE-32">
          <mxGeometry x="60" y="30" width="170" height="30" as="geometry" />
        </mxCell>
        <mxCell id="QNgcP84DdOr4TPMnf6nE-35" value="+&amp;nbsp; 회원 정보 조회/수정" style="text;html=1;strokeColor=none;fillColor=none;align=center;verticalAlign=middle;whiteSpace=wrap;rounded=0;" vertex="1" parent="QNgcP84DdOr4TPMnf6nE-32">
          <mxGeometry x="80" y="70" width="160" height="30" as="geometry" />
        </mxCell>
        <mxCell id="QNgcP84DdOr4TPMnf6nE-36" value="+ 로그인/로그아웃" style="text;html=1;strokeColor=none;fillColor=none;align=center;verticalAlign=middle;whiteSpace=wrap;rounded=0;" vertex="1" parent="QNgcP84DdOr4TPMnf6nE-32">
          <mxGeometry x="70" y="110" width="150" height="30" as="geometry" />
        </mxCell>
        <mxCell id="QNgcP84DdOr4TPMnf6nE-37" value="+&amp;nbsp; 게시판 등록/수정/삭제" style="text;html=1;strokeColor=none;fillColor=none;align=center;verticalAlign=middle;whiteSpace=wrap;rounded=0;" vertex="1" parent="QNgcP84DdOr4TPMnf6nE-32">
          <mxGeometry x="50" y="150" width="230" height="30" as="geometry" />
        </mxCell>
        <mxCell id="QNgcP84DdOr4TPMnf6nE-38" value="+&amp;nbsp; 게시판 댓글 등록/수정/삭제" style="text;html=1;strokeColor=none;fillColor=none;align=center;verticalAlign=middle;whiteSpace=wrap;rounded=0;" vertex="1" parent="QNgcP84DdOr4TPMnf6nE-32">
          <mxGeometry x="70" y="190" width="210" height="30" as="geometry" />
        </mxCell>
        <mxCell id="QNgcP84DdOr4TPMnf6nE-39" value="" style="ellipse;whiteSpace=wrap;html=1;" vertex="1" parent="QNgcP84DdOr4TPMnf6nE-32">
          <mxGeometry x="10" y="150" width="60" height="30" as="geometry" />
        </mxCell>
        <mxCell id="QNgcP84DdOr4TPMnf6nE-40" value="" style="ellipse;whiteSpace=wrap;html=1;" vertex="1" parent="QNgcP84DdOr4TPMnf6nE-32">
          <mxGeometry x="10" y="70" width="60" height="30" as="geometry" />
        </mxCell>
        <mxCell id="QNgcP84DdOr4TPMnf6nE-41" value="" style="ellipse;whiteSpace=wrap;html=1;" vertex="1" parent="QNgcP84DdOr4TPMnf6nE-32">
          <mxGeometry x="10" y="190" width="60" height="30" as="geometry" />
        </mxCell>
        <mxCell id="QNgcP84DdOr4TPMnf6nE-44" value="" style="ellipse;whiteSpace=wrap;html=1;" vertex="1" parent="QNgcP84DdOr4TPMnf6nE-32">
          <mxGeometry x="10" y="110" width="60" height="30" as="geometry" />
        </mxCell>
        <mxCell id="QNgcP84DdOr4TPMnf6nE-43" value="" style="endArrow=classic;html=1;" edge="1" parent="1">
          <mxGeometry width="50" height="50" relative="1" as="geometry">
            <mxPoint x="160" y="640" as="sourcePoint" />
            <mxPoint x="430" y="900" as="targetPoint" />
          </mxGeometry>
        </mxCell>
        <mxCell id="QNgcP84DdOr4TPMnf6nE-46" value="관리자" style="shape=umlActor;verticalLabelPosition=bottom;verticalAlign=top;html=1;outlineConnect=0;labelBackgroundColor=#CCCCFF;" vertex="1" parent="1">
          <mxGeometry x="130" y="935" width="30" height="60" as="geometry" />
        </mxCell>
        <mxCell id="QNgcP84DdOr4TPMnf6nE-47" value="" style="endArrow=classic;html=1;" edge="1" parent="1">
          <mxGeometry width="50" height="50" relative="1" as="geometry">
            <mxPoint x="145" y="920" as="sourcePoint" />
            <mxPoint x="144.5" y="680" as="targetPoint" />
          </mxGeometry>
        </mxCell>
      </root>
    </mxGraphModel>
  </diagram>
</mxfile>
